<svg xmlns="http://www.w3.org/2000/svg" width="128" height="128" viewBox="0 0 128 128" shape-rendering="crispEdges">
  <rect width="128" height="128" fill="#000000" fill-opacity="0" />
  <polygon points="100,23 103,23 94,110 91,110" fill="#9CA2A8" fill-opacity="0.880" /><polygon points="100,11 107,23 98,30" fill="#D4DAE0" fill-opacity="0.960" /><polygon points="98,35 105,30 110,40 103,44" fill="#CBAA80" fill-opacity="0.620" /><polygon points="41,56 46,80 46,99 57,106 64,89 71,106 82,99 82,80 87,56 75,44 53,44" fill="#111316" fill-opacity="1.000" /><polygon points="43,59 48,80 48,96 57,103 64,87 71,103 80,96 80,80 85,59 73,47 55,47" fill="#54606E" fill-opacity="1.000" /><polygon points="62,56 64,56 69,99 64,103 59,99" fill="#454F5B" fill-opacity="0.900" /><polygon points="57,61 64,56 71,61 69,75 59,75" fill="#7C8693" fill-opacity="0.840" /><polygon points="53,70 64,66 75,70 71,77 57,77" fill="#9E7E55" fill-opacity="0.780" /><polygon points="43,66 48,56 57,59 57,80 46,87 41,77" fill="#9CA2A8" fill-opacity="0.880" /><polygon points="85,66 80,56 71,59 71,80 82,87 87,77" fill="#9CA2A8" fill-opacity="0.880" /><polygon points="39,68 34,80 39,92 46,87 46,70" fill="#111316" fill-opacity="1.000" /><polygon points="40,69 36,81 40,93 47,88 47,72" fill="#454F5B" fill-opacity="1.000" /><polygon points="89,68 82,70 82,87 89,92 94,80" fill="#111316" fill-opacity="1.000" /><polygon points="88,69 81,72 81,88 88,93 92,81" fill="#454F5B" fill-opacity="1.000" /><polygon points="37,77 41,75 43,85 39,87" fill="#9CA2A8" fill-opacity="0.860" /><polygon points="85,75 89,77 87,87 82,85" fill="#9CA2A8" fill-opacity="0.860" /><rect x="55" y="33" width="18" height="21" fill="#111316" fill-opacity="1.000" /><rect x="56" y="34" width="16" height="19" fill="#E0BD9C" fill-opacity="1.000" /><rect x="56" y="43" width="16" height="10" fill="#C2A080" fill-opacity="0.280" /><rect x="58" y="41" width="3" height="2" fill="#111316" fill-opacity="0.700" /><rect x="67" y="41" width="3" height="2" fill="#111316" fill-opacity="0.700" /><rect x="63" y="46" width="2" height="3" fill="#9F8369" fill-opacity="0.460" /><polygon points="53,40 55,30 64,23 73,28 75,40 71,37 64,35 57,37" fill="#1A1919" fill-opacity="1.000" /><polygon points="53,33 57,23 64,18 73,23 78,33 69,33 64,30 57,33" fill="#D4DAE0" fill-opacity="0.940" /><polygon points="59,49 64,54 69,49 66,56 64,59 62,56" fill="#1A1919" fill-opacity="0.780" /><rect x="39" y="73" width="7" height="12" fill="#D4DAE0" fill-opacity="0.480" /><rect x="82" y="73" width="7" height="12" fill="#D4DAE0" fill-opacity="0.480" />
</svg>
