<svg xmlns="http://www.w3.org/2000/svg" width="768" height="768" viewBox="0 0 768 768">
  <defs>
    <linearGradient id="bg" x1="0" y1="0" x2="0" y2="1">
      <stop offset="0%" stop-color="#191412" />
      <stop offset="100%" stop-color="#5B3A2D" />
    </linearGradient>
    <radialGradient id="sun" cx="50%" cy="45%" r="42%">
      <stop offset="0%" stop-color="#DDAC85" stop-opacity="0.52" />
      <stop offset="60%" stop-color="#D08C55" stop-opacity="0.12" />
      <stop offset="100%" stop-color="#D08C55" stop-opacity="0" />
    </radialGradient>
    <linearGradient id="robe" x1="0" y1="0" x2="0.9" y2="1">
      <stop offset="0%" stop-color="#867065" />
      <stop offset="100%" stop-color="#584237" />
    </linearGradient>
    <linearGradient id="metal" x1="0" y1="0" x2="1" y2="1">
      <stop offset="0%" stop-color="#DCD4CC" />
      <stop offset="100%" stop-color="#AAA29A" />
    </linearGradient>
    <linearGradient id="accent" x1="0" y1="0" x2="1" y2="1">
      <stop offset="0%" stop-color="#D79D6E" />
      <stop offset="100%" stop-color="#AB7346" />
    </linearGradient>
  </defs>
  <rect width="768" height="768" fill="url(#bg)" />
  <rect width="768" height="768" fill="#120E0D" fill-opacity="0.180" />
  <circle cx="520" cy="178" r="194" fill="url(#sun)" />
  <ellipse cx="123" cy="375" rx="55" ry="22" transform="rotate(-9 123 375)" fill="#CF8B55" fill-opacity="0.045" /><ellipse cx="342" cy="307" rx="38" ry="21" transform="rotate(-25 342 307)" fill="#BC8051" fill-opacity="0.045" /><ellipse cx="330" cy="285" rx="94" ry="23" transform="rotate(39 330 285)" fill="#C68653" fill-opacity="0.045" /><ellipse cx="129" cy="611" rx="81" ry="23" transform="rotate(-18 129 611)" fill="#9D6E4C" fill-opacity="0.045" /><ellipse cx="91" cy="663" rx="54" ry="39" transform="rotate(-29 91 663)" fill="#C28453" fill-opacity="0.045" /><ellipse cx="554" cy="200" rx="44" ry="26" transform="rotate(9 554 200)" fill="#B67D50" fill-opacity="0.045" /><ellipse cx="417" cy="191" rx="56" ry="12" transform="rotate(-42 417 191)" fill="#B77D50" fill-opacity="0.045" /><ellipse cx="441" cy="673" rx="68" ry="26" transform="rotate(37 441 673)" fill="#A8744E" fill-opacity="0.045" /><ellipse cx="519" cy="288" rx="36" ry="23" transform="rotate(-3 519 288)" fill="#BB7F51" fill-opacity="0.045" /><ellipse cx="371" cy="314" rx="63" ry="33" transform="rotate(-4 371 314)" fill="#986B4B" fill-opacity="0.045" />
  <path d="M 0.0 560.0 L 140.0 470.0 L 280.0 545.0 L 420.0 430.0 L 550.0 512.0 L 768.0 410.0 L 768.0 768.0 L 0.0 768.0 Z" fill="#56372B" fill-opacity="0.920" /><path d="M 0.0 620.0 L 120.0 540.0 L 235.0 610.0 L 380.0 500.0 L 540.0 620.0 L 690.0 565.0 L 768.0 600.0 L 768.0 768.0 L 0.0 768.0 Z" fill="#5F3F32" fill-opacity="0.580" />
  <ellipse cx="81" cy="447" rx="127" ry="44" fill="#ECE0D5" fill-opacity="0.060" /><ellipse cx="193" cy="437" rx="132" ry="40" fill="#ECE0D5" fill-opacity="0.070" /><ellipse cx="298" cy="407" rx="115" ry="53" fill="#ECE0D5" fill-opacity="0.080" /><ellipse cx="376" cy="440" rx="133" ry="54" fill="#ECE0D5" fill-opacity="0.090" /><ellipse cx="493" cy="412" rx="114" ry="51" fill="#ECE0D5" fill-opacity="0.100" /><ellipse cx="608" cy="431" rx="152" ry="47" fill="#ECE0D5" fill-opacity="0.110" /><ellipse cx="690" cy="441" rx="136" ry="40" fill="#ECE0D5" fill-opacity="0.120" />
  <path d="M 94.0 602.0 L 174.0 556.0 L 252.0 590.0 L 332.0 540.0 L 412.0 584.0 L 496.0 534.0 L 628.0 578.0 L 710.0 522.0 L 736.0 548.0 L 620.0 640.0 L 516.0 616.0 L 378.0 662.0 L 246.0 628.0 L 116.0 654.0 Z" fill="#F1E5D9" fill-opacity="0.070" />
  
  <g transform="translate(530 136) rotate(18) scale(1 1)">
    <path d="M 0 -82 L 20 32 L 0 86 L -20 32 Z" fill="#D7CEC6" opacity="0.92" />
    <rect x="-8" y="82" width="16" height="222" rx="8" fill="#252F39" opacity="0.78" />
    <rect x="-42" y="86" width="84" height="16" rx="8" fill="#D08C55" opacity="0.7" />
    <rect x="-12" y="102" width="24" height="30" rx="8" fill="#AB7346" opacity="0.7" />
  </g>
  <ellipse cx="382" cy="366" rx="182" ry="230" fill="#ECE0D5" fill-opacity="0.100" />
  <path d="M 146.0 696.0 L 212.0 510.0 L 300.0 432.0 L 462.0 432.0 L 550.0 516.0 L 622.0 696.0 Z" fill="url(#robe)" stroke="#171210" stroke-opacity="0.22" stroke-width="5" />
  <path d="M 284.0 704.0 L 322.0 464.0 L 382.0 430.0 L 438.0 464.0 L 482.0 704.0 Z" fill="#423E3E" fill-opacity="0.66" />
  <path d="M 344.0 430.0 L 378.0 502.0 L 416.0 430.0 L 438.0 520.0 L 378.0 612.0 L 320.0 522.0 Z" fill="#3E4955" fill-opacity="0.72" />
  <path d="M 326.0 518.0 L 378.0 472.0 L 430.0 518.0 L 410.0 564.0 L 348.0 564.0 Z" fill="#F1E5D9" fill-opacity="0.18" />
  <path d="M 164.0 600.0 L 212.0 504.0 L 286.0 522.0 L 294.0 604.0 L 244.0 648.0 L 176.0 640.0 Z" fill="#BBB5AE" fill-opacity="0.64" />
  <path d="M 594.0 600.0 L 544.0 516.0 L 472.0 522.0 L 462.0 604.0 L 516.0 648.0 L 584.0 638.0 Z" fill="#BBB5AE" fill-opacity="0.64" />
  <path d="M 228.0 682.0 L 286.0 602.0 L 380.0 584.0 L 470.0 604.0 L 540.0 682.0 L 502.0 698.0 L 382.0 650.0 L 266.0 700.0 Z" fill="#D08C55" fill-opacity="0.12" />
  <ellipse cx="384" cy="272" rx="84" ry="100" fill="#DAAE86" />
  <path d="M 300.0 306.0 L 330.0 374.0 L 382.0 404.0 L 444.0 370.0 L 470.0 304.0 L 430.0 304.0 L 422.0 332.0 L 390.0 350.0 L 354.0 330.0 L 344.0 304.0 Z" fill="#C09976" fill-opacity="0.46" />
  <ellipse cx="352" cy="274" rx="15" ry="10" fill="#171210" fill-opacity="0.76" />
  <ellipse cx="416" cy="274" rx="15" ry="10" fill="#171210" fill-opacity="0.76" />
  <path d="M 336 246 Q 354 232 372 244" fill="none" stroke="#171210" stroke-width="6" stroke-linecap="round" stroke-opacity="0.84" />
  <path d="M 396 244 Q 414 232 432 246" fill="none" stroke="#171210" stroke-width="6" stroke-linecap="round" stroke-opacity="0.84" />
  <path d="M 382 286 Q 372 318 386 330" fill="none" stroke="#AA8869" stroke-width="4" stroke-linecap="round" stroke-opacity="0.56" />
  <path d="M 352 350 Q 384 364 416 350" fill="none" stroke="#A18163" stroke-width="5" stroke-linecap="round" stroke-opacity="0.74" />
  <ellipse cx="354" cy="286" rx="6" ry="4" fill="#F2E8DD" fill-opacity="0.32" />
  <ellipse cx="418" cy="286" rx="6" ry="4" fill="#F2E8DD" fill-opacity="0.32" />
  <path d="M 292.0 288.0 L 304.0 196.0 L 346.0 138.0 L 398.0 134.0 L 448.0 150.0 L 478.0 220.0 L 474.0 296.0 L 440.0 246.0 L 396.0 230.0 L 334.0 250.0 Z" fill="#1C1513" />
  <path d="M 346 340 C 364 330 378 332 384 342 C 388 334 406 330 424 342 C 408 348 394 352 384 348 C 374 352 360 348 346 340 Z" fill="#211B1B" fill-opacity="0.84" />
  <path d="M 316.0 218.0 L 332.0 160.0 L 374.0 126.0 L 424.0 126.0 L 454.0 164.0 L 458.0 220.0 L 430.0 214.0 L 388.0 206.0 L 340.0 210.0 Z" fill="#D7CDC5" fill-opacity="0.9" />
  
  <path d="M 202.0 520.0 L 254.0 498.0 L 286.0 538.0 L 232.0 560.0 Z" fill="#D08C55" fill-opacity="0.22" />
  <path d="M 514.0 512.0 L 574.0 488.0 L 604.0 532.0 L 544.0 556.0 Z" fill="#D08C55" fill-opacity="0.22" />
  <path d="M 220 628 C 300 650 468 650 550 628" fill="none" stroke="#D79D6E" stroke-width="10" stroke-opacity="0.16" stroke-linecap="round" />
  <path d="M 184 202 C 246 154 276 150 330 166" fill="none" stroke="#D79D6E" stroke-width="7" stroke-opacity="0.18" stroke-linecap="round" />
  <path d="M 582 194 C 528 148 500 150 442 166" fill="none" stroke="#D79D6E" stroke-width="7" stroke-opacity="0.18" stroke-linecap="round" />
  <circle cx="172" cy="612" r="7" fill="#D08C55" fill-opacity="0.45" />
  <circle cx="596" cy="612" r="7" fill="#D08C55" fill-opacity="0.45" />
  <g transform="translate(82 82) scale(1 1)"><path d="M 0 18 C 16 6 34 0 62 0 L 62 12 C 42 12 26 18 12 30 L 0 18 Z" fill="#D79C6D" fill-opacity="0.52" /><path d="M 18 0 C 6 16 0 34 0 62 L 12 62 C 12 42 18 26 30 12 L 18 0 Z" fill="#28333F" fill-opacity="0.24" /></g>
  <g transform="translate(686 82) scale(-1 1)"><path d="M 0 18 C 16 6 34 0 62 0 L 62 12 C 42 12 26 18 12 30 L 0 18 Z" fill="#D79C6D" fill-opacity="0.52" /><path d="M 18 0 C 6 16 0 34 0 62 L 12 62 C 12 42 18 26 30 12 L 18 0 Z" fill="#28333F" fill-opacity="0.24" /></g>
  <g transform="translate(82 686) scale(1 -1)"><path d="M 0 18 C 16 6 34 0 62 0 L 62 12 C 42 12 26 18 12 30 L 0 18 Z" fill="#D79C6D" fill-opacity="0.52" /><path d="M 18 0 C 6 16 0 34 0 62 L 12 62 C 12 42 18 26 30 12 L 18 0 Z" fill="#28333F" fill-opacity="0.24" /></g>
  <g transform="translate(686 686) scale(-1 -1)"><path d="M 0 18 C 16 6 34 0 62 0 L 62 12 C 42 12 26 18 12 30 L 0 18 Z" fill="#D79C6D" fill-opacity="0.52" /><path d="M 18 0 C 6 16 0 34 0 62 L 12 62 C 12 42 18 26 30 12 L 18 0 Z" fill="#28333F" fill-opacity="0.24" /></g>
  <rect x="22" y="22" width="724" height="724" rx="22" ry="22" fill="none" stroke="#DFB490" stroke-opacity="0.34" stroke-width="2" />
  <rect x="36" y="36" width="696" height="696" rx="16" ry="16" fill="none" stroke="#D4CABF" stroke-opacity="0.14" stroke-width="1.2" />
</svg>
