<svg xmlns="http://www.w3.org/2000/svg" width="768" height="768" viewBox="0 0 768 768">
  <defs>
    <linearGradient id="bg" x1="0" y1="0" x2="0" y2="1">
      <stop offset="0%" stop-color="#141A20" />
      <stop offset="100%" stop-color="#335169" />
    </linearGradient>
    <radialGradient id="sun" cx="50%" cy="45%" r="42%">
      <stop offset="0%" stop-color="#DAC99F" stop-opacity="0.52" />
      <stop offset="60%" stop-color="#CBB47A" stop-opacity="0.12" />
      <stop offset="100%" stop-color="#CBB47A" stop-opacity="0" />
    </radialGradient>
    <linearGradient id="robe" x1="0" y1="0" x2="0.9" y2="1">
      <stop offset="0%" stop-color="#DDE1E2" />
      <stop offset="100%" stop-color="#AFB4B4" />
    </linearGradient>
    <linearGradient id="metal" x1="0" y1="0" x2="1" y2="1">
      <stop offset="0%" stop-color="#E6E0D0" />
      <stop offset="100%" stop-color="#B4AE9E" />
    </linearGradient>
    <linearGradient id="accent" x1="0" y1="0" x2="1" y2="1">
      <stop offset="0%" stop-color="#D3BF8E" />
      <stop offset="100%" stop-color="#A69464" />
    </linearGradient>
  </defs>
  <rect width="768" height="768" fill="url(#bg)" />
  <rect width="768" height="768" fill="#0E1317" fill-opacity="0.180" />
  <circle cx="520" cy="178" r="194" fill="url(#sun)" />
  <ellipse cx="645" cy="405" rx="35" ry="18" transform="rotate(30 645 405)" fill="#CBB47B" fill-opacity="0.045" /><ellipse cx="619" cy="630" rx="40" ry="24" transform="rotate(43 619 630)" fill="#CEBD91" fill-opacity="0.045" /><ellipse cx="414" cy="203" rx="35" ry="17" transform="rotate(-38 414 203)" fill="#CCB883" fill-opacity="0.045" /><ellipse cx="339" cy="269" rx="56" ry="27" transform="rotate(-15 339 269)" fill="#CDBA88" fill-opacity="0.045" /><ellipse cx="282" cy="280" rx="94" ry="15" transform="rotate(46 282 280)" fill="#CDBA8A" fill-opacity="0.045" /><ellipse cx="62" cy="541" rx="60" ry="31" transform="rotate(39 62 541)" fill="#CDBB8B" fill-opacity="0.045" /><ellipse cx="158" cy="417" rx="59" ry="33" transform="rotate(-23 158 417)" fill="#CEBD92" fill-opacity="0.045" /><ellipse cx="359" cy="489" rx="86" ry="20" transform="rotate(26 359 489)" fill="#CCB884" fill-opacity="0.045" /><ellipse cx="163" cy="98" rx="63" ry="12" transform="rotate(0 163 98)" fill="#CBB57C" fill-opacity="0.045" /><ellipse cx="361" cy="295" rx="86" ry="36" transform="rotate(14 361 295)" fill="#D0C5A5" fill-opacity="0.045" />
  <path d="M 0.0 560.0 L 140.0 470.0 L 280.0 545.0 L 420.0 430.0 L 550.0 512.0 L 768.0 410.0 L 768.0 768.0 L 0.0 768.0 Z" fill="#304D64" fill-opacity="0.920" /><path d="M 0.0 620.0 L 120.0 540.0 L 235.0 610.0 L 380.0 500.0 L 540.0 620.0 L 690.0 565.0 L 768.0 600.0 L 768.0 768.0 L 0.0 768.0 Z" fill="#576F82" fill-opacity="0.580" />
  <ellipse cx="78" cy="414" rx="142" ry="40" fill="#F4EFE6" fill-opacity="0.060" /><ellipse cx="197" cy="428" rx="107" ry="43" fill="#F4EFE6" fill-opacity="0.070" /><ellipse cx="285" cy="419" rx="126" ry="36" fill="#F4EFE6" fill-opacity="0.080" /><ellipse cx="380" cy="412" rx="104" ry="49" fill="#F4EFE6" fill-opacity="0.090" /><ellipse cx="506" cy="453" rx="115" ry="36" fill="#F4EFE6" fill-opacity="0.100" /><ellipse cx="605" cy="444" rx="148" ry="38" fill="#F4EFE6" fill-opacity="0.110" /><ellipse cx="676" cy="441" rx="148" ry="42" fill="#F4EFE6" fill-opacity="0.120" />
  <path d="M 94.0 602.0 L 174.0 556.0 L 252.0 590.0 L 332.0 540.0 L 412.0 584.0 L 496.0 534.0 L 628.0 578.0 L 710.0 522.0 L 736.0 548.0 L 620.0 640.0 L 516.0 616.0 L 378.0 662.0 L 246.0 628.0 L 116.0 654.0 Z" fill="#F7F2E7" fill-opacity="0.070" />
  
  <g transform="translate(530 118) rotate(18) scale(1 1)">
    <rect x="-8" y="0" width="16" height="380" rx="8" fill="#455D71" opacity="0.78" />
    <path d="M -12.0 8.0 L 0.0 -70.0 L 12.0 8.0 L 0.0 46.0 Z" fill="#E3DCCB" opacity="0.86" />
    <path d="M -20.0 80.0 L 0.0 46.0 L 20.0 80.0 L 0.0 98.0 Z" fill="#CBB47A" opacity="0.6" />
  </g>
  <ellipse cx="382" cy="366" rx="182" ry="230" fill="#F4EFE6" fill-opacity="0.100" />
  <path d="M 196.0 696.0 L 264.0 558.0 L 322.0 448.0 L 438.0 448.0 L 500.0 548.0 L 568.0 696.0 Z" fill="url(#robe)" stroke="#171516" stroke-opacity="0.22" stroke-width="5" />
  <path d="M 284.0 704.0 L 322.0 464.0 L 382.0 430.0 L 438.0 464.0 L 482.0 704.0 Z" fill="#82939F" fill-opacity="0.66" />
  <path d="M 344.0 430.0 L 378.0 502.0 L 416.0 430.0 L 438.0 520.0 L 378.0 612.0 L 320.0 522.0 Z" fill="#627D93" fill-opacity="0.72" />
  <path d="M 326.0 518.0 L 378.0 472.0 L 430.0 518.0 L 410.0 564.0 L 348.0 564.0 Z" fill="#F7F2E7" fill-opacity="0.18" />
  <path d="M 204.0 696.0 L 154.0 560.0 L 202.0 444.0 L 264.0 466.0 L 252.0 624.0 Z" fill="#527087" fill-opacity="0.48" />
  <path d="M 228.0 682.0 L 286.0 602.0 L 380.0 584.0 L 470.0 604.0 L 540.0 682.0 L 502.0 698.0 L 382.0 650.0 L 266.0 700.0 Z" fill="#CBB47A" fill-opacity="0.12" />
  <ellipse cx="384" cy="272" rx="84" ry="100" fill="#E4C3A0" />
  <path d="M 300.0 306.0 L 330.0 374.0 L 382.0 404.0 L 444.0 370.0 L 470.0 304.0 L 430.0 304.0 L 422.0 332.0 L 390.0 350.0 L 354.0 330.0 L 344.0 304.0 Z" fill="#C9AC8D" fill-opacity="0.46" />
  <ellipse cx="352" cy="274" rx="15" ry="10" fill="#171516" fill-opacity="0.76" />
  <ellipse cx="416" cy="274" rx="15" ry="10" fill="#171516" fill-opacity="0.76" />
  <path d="M 336 246 Q 354 232 372 244" fill="none" stroke="#171516" stroke-width="6" stroke-linecap="round" stroke-opacity="0.84" />
  <path d="M 396 244 Q 414 232 432 246" fill="none" stroke="#171516" stroke-width="6" stroke-linecap="round" stroke-opacity="0.84" />
  <path d="M 382 286 Q 372 318 386 330" fill="none" stroke="#B2987D" stroke-width="4" stroke-linecap="round" stroke-opacity="0.56" />
  <path d="M 352 350 Q 384 364 416 350" fill="none" stroke="#A99076" stroke-width="5" stroke-linecap="round" stroke-opacity="0.74" />
  <ellipse cx="354" cy="286" rx="6" ry="4" fill="#F8F3E9" fill-opacity="0.32" />
  <ellipse cx="418" cy="286" rx="6" ry="4" fill="#F8F3E9" fill-opacity="0.32" />
  <path d="M 306.0 274.0 L 312.0 212.0 L 350.0 160.0 L 392.0 150.0 L 438.0 170.0 L 460.0 220.0 L 458.0 280.0 L 436.0 238.0 L 392.0 230.0 L 344.0 240.0 Z" fill="#1E1C1A" />
  
  <path d="M 316.0 222.0 L 332.0 162.0 L 376.0 130.0 L 424.0 132.0 L 452.0 170.0 L 458.0 226.0 L 428.0 214.0 L 386.0 206.0 L 340.0 214.0 Z" fill="#E3DBC9" fill-opacity="0.9" /><path d="M 388 124 C 438 74 480 70 514 106" fill="none" stroke="#F8F3E9" stroke-width="18" stroke-opacity="0.48" />
  
  <path d="M 202.0 520.0 L 254.0 498.0 L 286.0 538.0 L 232.0 560.0 Z" fill="#CBB47A" fill-opacity="0.22" />
  <path d="M 514.0 512.0 L 574.0 488.0 L 604.0 532.0 L 544.0 556.0 Z" fill="#CBB47A" fill-opacity="0.22" />
  <path d="M 220 628 C 300 650 468 650 550 628" fill="none" stroke="#D3BF8E" stroke-width="10" stroke-opacity="0.16" stroke-linecap="round" />
  <path d="M 184 202 C 246 154 276 150 330 166" fill="none" stroke="#D3BF8E" stroke-width="7" stroke-opacity="0.18" stroke-linecap="round" />
  <path d="M 582 194 C 528 148 500 150 442 166" fill="none" stroke="#D3BF8E" stroke-width="7" stroke-opacity="0.18" stroke-linecap="round" />
  <circle cx="172" cy="612" r="7" fill="#CBB47A" fill-opacity="0.45" />
  <circle cx="596" cy="612" r="7" fill="#CBB47A" fill-opacity="0.45" />
  <g transform="translate(82 82) scale(1 1)"><path d="M 0 18 C 16 6 34 0 62 0 L 62 12 C 42 12 26 18 12 30 L 0 18 Z" fill="#D2BE8D" fill-opacity="0.52" /><path d="M 18 0 C 6 16 0 34 0 62 L 12 62 C 12 42 18 26 30 12 L 18 0 Z" fill="#4C677C" fill-opacity="0.24" /></g>
  <g transform="translate(686 82) scale(-1 1)"><path d="M 0 18 C 16 6 34 0 62 0 L 62 12 C 42 12 26 18 12 30 L 0 18 Z" fill="#D2BE8D" fill-opacity="0.52" /><path d="M 18 0 C 6 16 0 34 0 62 L 12 62 C 12 42 18 26 30 12 L 18 0 Z" fill="#4C677C" fill-opacity="0.24" /></g>
  <g transform="translate(82 686) scale(1 -1)"><path d="M 0 18 C 16 6 34 0 62 0 L 62 12 C 42 12 26 18 12 30 L 0 18 Z" fill="#D2BE8D" fill-opacity="0.52" /><path d="M 18 0 C 6 16 0 34 0 62 L 12 62 C 12 42 18 26 30 12 L 18 0 Z" fill="#4C677C" fill-opacity="0.24" /></g>
  <g transform="translate(686 686) scale(-1 -1)"><path d="M 0 18 C 16 6 34 0 62 0 L 62 12 C 42 12 26 18 12 30 L 0 18 Z" fill="#D2BE8D" fill-opacity="0.52" /><path d="M 18 0 C 6 16 0 34 0 62 L 12 62 C 12 42 18 26 30 12 L 18 0 Z" fill="#4C677C" fill-opacity="0.24" /></g>
  <rect x="22" y="22" width="724" height="724" rx="22" ry="22" fill="none" stroke="#DFD0AB" stroke-opacity="0.34" stroke-width="2" />
  <rect x="36" y="36" width="696" height="696" rx="16" ry="16" fill="none" stroke="#D9D5CB" stroke-opacity="0.14" stroke-width="1.2" />
</svg>
