<svg xmlns="http://www.w3.org/2000/svg" width="128" height="128" viewBox="0 0 128 128" shape-rendering="crispEdges">
  <rect width="128" height="128" fill="#000000" fill-opacity="0" />
  <polygon points="100,14 107,28 100,44 94,28" fill="#DCE1E5" fill-opacity="0.960" /><polygon points="98,42 103,42 96,110 91,110" fill="#A4A8AD" fill-opacity="0.860" /><polygon points="94,44 107,44 107,49 94,49" fill="#D8A773" fill-opacity="0.680" /><polygon points="46,56 50,77 50,99 59,103 64,87 69,103 78,99 78,77 82,56 73,47 55,47" fill="#111316" fill-opacity="1.000" /><polygon points="48,59 53,77 53,96 59,101 64,85 69,101 75,96 75,77 80,59 71,49 57,49" fill="#445668" fill-opacity="1.000" /><polygon points="62,56 64,56 69,99 64,103 59,99" fill="#384756" fill-opacity="0.900" /><polygon points="57,61 64,56 71,61 69,75 59,75" fill="#6E7D8D" fill-opacity="0.840" /><polygon points="55,68 64,63 73,68 69,75 59,75" fill="#AB7B48" fill-opacity="0.780" /><polygon points="43,66 37,77 41,92 48,87 53,68" fill="#111316" fill-opacity="1.000" /><polygon points="45,67 38,79 42,93 49,88 54,69" fill="#384756" fill-opacity="1.000" /><polygon points="85,66 75,68 80,87 87,92 94,77" fill="#111316" fill-opacity="1.000" /><polygon points="83,67 74,69 79,88 86,93 92,79" fill="#384756" fill-opacity="1.000" /><polygon points="37,77 41,75 43,85 39,87" fill="#A4A8AD" fill-opacity="0.860" /><polygon points="85,75 89,77 87,87 82,85" fill="#A4A8AD" fill-opacity="0.860" /><rect x="55" y="33" width="18" height="21" fill="#111316" fill-opacity="1.000" /><rect x="56" y="34" width="16" height="19" fill="#E0BC98" fill-opacity="1.000" /><rect x="56" y="43" width="16" height="10" fill="#C29E7C" fill-opacity="0.280" /><rect x="58" y="41" width="3" height="2" fill="#111316" fill-opacity="0.700" /><rect x="67" y="41" width="3" height="2" fill="#111316" fill-opacity="0.700" /><rect x="63" y="46" width="2" height="3" fill="#9F8266" fill-opacity="0.460" /><polygon points="55,37 57,30 64,26 71,30 73,37 69,35 59,35" fill="#1B1616" fill-opacity="1.000" /><polygon points="53,33 57,23 64,18 73,23 78,33 69,33 64,30 57,33" fill="#DCE1E5" fill-opacity="0.940" /><polygon points="59,49 64,54 69,49 66,56 64,59 62,56" fill="#1B1616" fill-opacity="0.780" /><rect x="62" y="59" width="4" height="18" fill="#DCE1E5" fill-opacity="0.520" /><rect x="59" y="73" width="10" height="3" fill="#AB7B48" fill-opacity="0.560" />
</svg>
