<svg xmlns="http://www.w3.org/2000/svg" width="128" height="128" viewBox="0 0 128 128">
  <defs>
    <linearGradient id="body" x1="0" y1="0" x2="1" y2="1">
      <stop offset="0%" stop-color="#DDE1E2" />
      <stop offset="100%" stop-color="#C9CECF" />
    </linearGradient>
    <linearGradient id="metal" x1="0" y1="0" x2="1" y2="1">
      <stop offset="0%" stop-color="#E6DFCF" />
      <stop offset="100%" stop-color="#B0A99A" />
    </linearGradient>
  </defs>
  <circle cx="64" cy="60" r="40" fill="#DCCCA3" fill-opacity="0.08" />
  <g transform="translate(92 6) rotate(16) scale(1 1)"><rect x="-3" y="12" width="6" height="106" rx="3" fill="#455D71" opacity="0.84" /><path d="M -5.0 10.0 L 0.0 -10.0 L 5.0 10.0 L 0.0 18.0 Z" fill="#E3DCCB" opacity="0.92" /><path d="M -9.0 26.0 L 0.0 18.0 L 9.0 26.0 L 0.0 32.0 Z" fill="#CBB47A" opacity="0.55" /></g>
  <path d="M 38.0 122.0 L 40.0 80.0 L 50.0 46.0 L 64.0 28.0 L 78.0 44.0 L 88.0 76.0 L 92.0 122.0 L 72.0 118.0 L 64.0 86.0 L 56.0 118.0 Z" fill="url(#body)" stroke="#171516" stroke-width="3" stroke-opacity="0.14" />
  <path d="M 48.0 70.0 L 62.0 66.0 L 82.0 72.0 L 74.0 84.0 L 54.0 82.0 Z" fill="#CBB47A" fill-opacity="0.42" />
  <path d="M 42.0 76.0 L 34.0 56.0 L 40.0 38.0 L 52.0 44.0 L 50.0 72.0 Z" fill="#527087" fill-opacity="0.34" />
  <circle cx="64" cy="34" r="15" fill="#E4C3A0" />
  <path d="M 49.0 39.0 L 52.0 24.0 L 60.0 16.0 L 68.0 15.0 L 76.0 18.0 L 80.0 28.0 L 79.0 40.0 L 72.0 33.0 L 62.0 30.0 L 54.0 34.0 Z" fill="#1F1D1C" />
  <path d="M 50.0 24.0 L 54.0 14.0 L 64.0 8.0 L 74.0 12.0 L 78.0 24.0 L 70.0 24.0 L 64.0 22.0 L 54.0 24.0 Z" fill="#E3DCCB" fill-opacity="0.9" /><path d="M 64 8 C 74 0 84 0 92 10" fill="none" stroke="#F8F3E9" stroke-width="4" stroke-opacity="0.48" />
  
  <path d="M 58 35 Q 64 38 70 35" fill="none" stroke="#171516" stroke-width="2.3" stroke-linecap="round" stroke-opacity="0.55" />
  <path d="M 56 29 Q 60 26 64 28" fill="none" stroke="#171516" stroke-width="2" stroke-linecap="round" stroke-opacity="0.65" />
  <path d="M 64 28 Q 68 26 72 29" fill="none" stroke="#171516" stroke-width="2" stroke-linecap="round" stroke-opacity="0.65" />
  
</svg>
