<svg xmlns="http://www.w3.org/2000/svg" width="128" height="128" viewBox="0 0 128 128">
  <defs>
    <linearGradient id="body" x1="0" y1="0" x2="1" y2="1">
      <stop offset="0%" stop-color="#8F7F5C" />
      <stop offset="100%" stop-color="#705D35" />
    </linearGradient>
    <linearGradient id="metal" x1="0" y1="0" x2="1" y2="1">
      <stop offset="0%" stop-color="#DCCCAA" />
      <stop offset="100%" stop-color="#A79879" />
    </linearGradient>
  </defs>
  <circle cx="64" cy="60" r="40" fill="#E1CB97" fill-opacity="0.08" />
  <g transform="translate(92 12) rotate(12) scale(1 1)"><path d="M -4 6 C 20 18 24 74 -4 102" fill="none" stroke="#D9C598" stroke-width="6" stroke-linecap="round" stroke-opacity="0.82" /><line x1="2" y1="10" x2="8" y2="96" stroke="#EFE4D3" stroke-width="1.8" stroke-opacity="0.78" /></g>
  <path d="M 38.0 122.0 L 42.0 76.0 L 52.0 42.0 L 64.0 28.0 L 78.0 42.0 L 88.0 80.0 L 92.0 122.0 L 72.0 118.0 L 64.0 90.0 L 56.0 118.0 Z" fill="url(#body)" stroke="#191410" stroke-width="3" stroke-opacity="0.14" />
  <path d="M 48.0 70.0 L 62.0 66.0 L 82.0 72.0 L 74.0 84.0 L 54.0 82.0 Z" fill="#D8BC73" fill-opacity="0.42" />
  <path d="M 42.0 76.0 L 34.0 56.0 L 40.0 38.0 L 52.0 44.0 L 50.0 72.0 Z" fill="#2F4B3E" fill-opacity="0.34" />
  <circle cx="64" cy="34" r="15" fill="#DDBA94" />
  <path d="M 49.0 39.0 L 52.0 24.0 L 60.0 16.0 L 68.0 15.0 L 76.0 18.0 L 80.0 28.0 L 79.0 40.0 L 72.0 33.0 L 62.0 30.0 L 54.0 34.0 Z" fill="#B9B2A9" />
  <path d="M 52.0 24.0 L 56.0 14.0 L 64.0 10.0 L 74.0 14.0 L 76.0 24.0 L 70.0 26.0 L 56.0 26.0 Z" fill="#385447" fill-opacity="0.84" />
  <path d="M 56.0 40.0 L 60.0 58.0 L 64.0 80.0 L 68.0 58.0 L 72.0 40.0 L 70.0 76.0 L 64.0 96.0 L 58.0 76.0 Z" fill="#B9B2A9" fill-opacity="0.8" />
  <path d="M 58 35 Q 64 38 70 35" fill="none" stroke="#191410" stroke-width="2.3" stroke-linecap="round" stroke-opacity="0.55" />
  <path d="M 56 29 Q 60 26 64 28" fill="none" stroke="#191410" stroke-width="2" stroke-linecap="round" stroke-opacity="0.65" />
  <path d="M 64 28 Q 68 26 72 29" fill="none" stroke="#191410" stroke-width="2" stroke-linecap="round" stroke-opacity="0.65" />
  
</svg>
